<?xml version="1.0" standalone="no"?>
<!DOCTYPE svg PUBLIC "-//W3C//DTD SVG 20010904//EN"
 "http://www.w3.org/TR/2001/REC-SVG-20010904/DTD/svg10.dtd">
<svg version="1.0" xmlns="http://www.w3.org/2000/svg"
 width="500.000000pt" height="500.000000pt" viewBox="0 0 500.000000 500.000000"
 preserveAspectRatio="xMidYMid meet">
<metadata>
Created by potrace 1.11, written by Peter Selinger 2001-2013
</metadata>
<g transform="translate(0.000000,500.000000) scale(0.100000,-0.100000)"
fill="#000000" stroke="none">
<path d="M1329 4506 c-181 -52 -310 -208 -322 -391 -23 -339 331 -574 633
-420 331 168 306 658 -40 795 -68 27 -204 35 -271 16z"/>
<path d="M1265 3445 c-195 -30 -371 -139 -438 -270 -46 -91 -260 -785 -532
-1725 -31 -107 -58 -202 -61 -210 -2 -8 -8 -31 -13 -50 -32 -118 -43 -158 -51
-185 -11 -32 -41 -140 -115 -410 -26 -93 -49 -178 -51 -187 -5 -17 15 -18 324
-18 l329 0 78 263 c116 391 214 718 341 1147 114 381 202 675 250 840 14 47
30 95 36 107 13 28 54 35 77 14 13 -11 84 -230 211 -651 106 -349 199 -655
207 -679 8 -24 16 -51 18 -60 2 -9 38 -128 80 -266 43 -137 83 -270 90 -295 7
-25 36 -121 65 -215 29 -93 55 -178 57 -187 5 -17 30 -18 339 -18 l333 0 21
73 c12 39 34 115 50 167 55 181 282 946 336 1135 31 105 70 240 89 300 18 61
35 119 38 130 3 11 42 141 86 289 73 244 89 282 114 287 55 11 44 36 178 -406
142 -467 202 -663 245 -805 25 -80 61 -199 80 -265 20 -66 48 -160 64 -210 28
-89 63 -206 122 -400 16 -55 34 -111 38 -125 5 -14 18 -58 30 -97 l21 -73 325
0 c305 0 325 1 320 18 -3 9 -37 130 -76 267 -83 297 -58 209 -229 810 -286
1006 -450 1538 -515 1676 -67 140 -221 242 -431 284 -53 11 -218 13 -280 4
-178 -26 -331 -104 -415 -210 -46 -59 -79 -142 -176 -454 -109 -347 -116 -369
-184 -600 -71 -241 -138 -467 -171 -575 -14 -46 -24 -67 -27 -55 -2 11 -13 49
-24 85 -11 36 -24 81 -28 100 -5 19 -34 121 -65 225 -31 105 -58 197 -60 205
-4 16 -123 412 -157 520 -11 36 -22 74 -25 85 -19 69 -117 344 -140 392 -63
133 -229 241 -428 278 -65 12 -224 12 -300 0z"/>
</g>
</svg>
